HIERARCHY
ROOT Hips
{
	OFFSET -8.464133 100.302628 -2.129164
	CHANNELS 6 Xposition Yposition Zposition Xrotation Yrotation Zrotation
	JOINT Chest
	{
		OFFSET 3.011968 13.124092 2.200126
		CHANNELS 3 Xrotation Yrotation Zrotation
		JOINT Chest2
		{
			OFFSET 3.370588 20.235893 6.181762
			CHANNELS 3 Xrotation Yrotation Zrotation
			JOINT Chest3
			{
				OFFSET -0.850996 14.870148 0.987207
				CHANNELS 3 Xrotation Yrotation Zrotation
				JOINT Neck
				{
					OFFSET 0.608796 17.083115 2.532293
					CHANNELS 3 Xrotation Yrotation Zrotation
					JOINT Head
					{
						OFFSET -2.464946 9.941833 2.216261
						CHANNELS 3 Xrotation Yrotation Zrotation
						End Site
						{
							OFFSET -2.450248 9.960602 2.147164
						}
					}
				}
				JOINT LeftCollar
				{
					OFFSET 5.073683 12.625549 4.081373
					CHANNELS 3 Xrotation Yrotation Zrotation
					JOINT LeftUpArm
					{
						OFFSET 13.050671 10.235275 -5.780854
						CHANNELS 3 Xrotation Yrotation Zrotation
						JOINT LeftLowArm
						{
							OFFSET 7.881493 27.013885 18.650991
							CHANNELS 3 Xrotation Yrotation Zrotation
							JOINT LeftHand
							{
								OFFSET -8.966461 23.707733 16.077713
								CHANNELS 3 Xrotation Yrotation Zrotation
								End Site
								{
									OFFSET -1.959678 5.181458 3.513878
								}
							}
						}
					}
				}
				JOINT RightCollar
				{
					OFFSET -3.232994 12.721252 5.433790
					CHANNELS 3 Xrotation Yrotation Zrotation
					JOINT RightUpArm
					{
						OFFSET -16.753145 3.472198 -3.971443
						CHANNELS 3 Xrotation Yrotation Zrotation
						JOINT RightLowArm
						{
							OFFSET -17.991077 20.927475 19.444691
							CHANNELS 3 Xrotation Yrotation Zrotation
							JOINT RightHand
							{
								OFFSET -3.958130 24.213867 17.290936
								CHANNELS 3 Xrotation Yrotation Zrotation
								End Site
								{
									OFFSET -0.865082 5.292191 3.779099
								}
							}
						}
					}
				}
			}
		}
	}
	JOINT LeftUpLeg
	{
		OFFSET 9.507905 -1.738892 -2.644832
		CHANNELS 3 Xrotation Yrotation Zrotation
		JOINT LeftLowLeg
		{
			OFFSET 19.978441 -41.710808 10.249826
			CHANNELS 3 Xrotation Yrotation Zrotation
			JOINT LeftFoot
			{
				OFFSET -29.080761 -24.688694 -23.352633
				CHANNELS 3 Xrotation Yrotation Zrotation
				JOINT LeftToe
				{
					OFFSET -11.736094 -19.970182 4.797436
					CHANNELS 3 Xrotation Yrotation Zrotation
					End Site
					{
						OFFSET -0.300217 -17.711472 15.677134
					}
				}
			}
		}
	}
	JOINT RightUpLeg
	{
		OFFSET -9.507953 1.738701 2.644801
		CHANNELS 3 Xrotation Yrotation Zrotation
		JOINT RightLowLeg
		{
			OFFSET 0.999130 -40.625664 24.342751
			CHANNELS 3 Xrotation Yrotation Zrotation
			JOINT RightFoot
			{
				OFFSET 9.134952 -41.220211 -14.765732
				CHANNELS 3 Xrotation Yrotation Zrotation
				JOINT RightToe
				{
					OFFSET 3.987706 -16.342314 16.630812
					CHANNELS 3 Xrotation Yrotation Zrotation
					End Site
					{
						OFFSET -4.693218 -4.450995 22.753429
					}
				}
			}
		}
	}
}
MOTION
Frames: 6
Frame Time: 0.033333
-9.454724 97.268364 -3.090033 0.007657 0.608574 -1.559861 0.540380 0.065269 -0.880443 -0.151108 -0.927500 1.092793 -0.586957 0.100502 0.256161 0.052908 -0.945793 0.731424 -0.000004 0.000001 -0.000000 0.160322 0.191373 1.841183 0.320046 -0.455520 0.432647 -1.644729 -0.653858 0.269187 -0.000003 0.000000 0.000001 -0.040835 -0.632832 0.789282 0.211610 -0.149386 0.266335 -1.538693 0.655468 -1.053625 -0.000003 0.000001 0.000002 -1.047599 -0.066319 4.849543 -0.527847 1.131976 -6.636253 2.930521 0.472396 -0.031871 0.000006 0.000002 -0.000000 -3.915561 0.757625 0.857517 2.636481 1.068965 3.217679 2.724434 -3.472796 -0.287509 -0.000001 0.000000 0.000005 
-9.530295 97.078606 -3.174747 0.261735 0.135632 -1.624034 0.712564 0.077645 -1.040185 -0.272304 -0.874123 1.058969 -0.566056 0.701506 0.558059 -0.478498 -1.138593 0.791563 0.000000 -0.000000 -0.000000 0.158040 0.248222 1.954679 -0.142958 -0.185119 0.515123 -0.644411 -0.566001 0.194751 -0.000004 0.000001 -0.000003 -0.168412 -0.924382 0.715214 0.316813 -0.000177 0.263666 -1.568428 0.608116 -0.993558 -0.000005 0.000002 0.000002 -1.084850 -0.040557 5.211775 -1.327464 1.566829 -7.315696 3.272037 0.669237 0.179613 0.000001 0.000001 0.000003 -4.785284 0.910668 1.029795 3.099428 1.198022 3.205690 2.977601 -3.228393 -0.396099 -0.000001 -0.000001 0.000001 
-9.606846 96.890862 -3.254471 0.171898 0.365271 -1.586411 1.026445 -0.033056 -1.031684 -0.202861 -0.708631 0.902796 -0.799451 0.082113 0.616482 -0.530969 -0.794494 0.837199 -0.000002 0.000000 -0.000000 -0.416862 1.252842 2.008720 0.217259 -0.269491 0.693891 -0.606468 -0.491532 0.571968 -0.000003 0.000002 -0.000002 0.319387 -0.260281 0.705588 0.676992 0.254677 0.313170 -1.743149 0.383728 -1.085459 -0.000003 0.000003 0.000002 -0.823819 0.004973 5.179701 -1.264657 1.379160 -7.322090 3.266109 0.502859 -0.154073 0.000003 0.000000 -0.000002 -4.697012 0.906703 0.955495 3.144882 1.409434 3.420057 2.916644 -3.943665 -0.234554 -0.000001 0.000003 -0.000000 
-9.683292 96.719299 -3.333290 -0.147376 0.379606 -1.562517 1.401272 -0.098687 -1.209803 -0.777627 -0.604634 0.957763 -0.546564 -0.342128 0.630625 -0.080122 -0.626909 0.839365 -0.000003 0.000000 0.000001 -0.611866 1.754571 2.071770 0.564245 -0.333784 0.691228 -0.255486 -0.224327 0.616151 -0.000004 0.000001 -0.000003 0.583358 0.027864 0.630490 1.063636 0.435318 0.537889 -1.084626 0.605286 -1.142695 -0.000003 0.000003 0.000002 -0.445145 0.084920 5.398577 -1.625433 1.527904 -7.869493 3.629417 0.795722 0.073043 0.000001 -0.000001 0.000000 -4.856263 0.914237 0.867149 3.370094 1.565408 3.723451 3.156802 -4.162084 -0.257121 -0.000002 0.000002 0.000003 
-9.761837 96.554893 -3.406657 -0.403937 0.409826 -1.675887 1.673502 -0.164092 -1.203121 -0.302855 -0.657088 0.892420 -1.177911 -0.288382 0.764959 0.612515 -0.663822 0.779601 -0.000000 -0.000001 0.000000 -0.126161 1.267861 1.968637 0.861428 -0.518554 0.485560 -0.239706 -0.006495 0.502408 -0.000004 -0.000000 0.000001 0.914963 0.608842 0.641518 1.103874 0.331604 0.663317 -0.710475 0.558066 -1.167288 -0.000005 0.000003 -0.000000 -0.610871 0.177004 5.819515 -1.370352 1.534035 -8.251346 2.986136 0.436849 -0.186916 -0.000001 -0.000000 -0.000004 -5.198606 0.887602 0.910700 3.868833 1.588120 3.918146 3.114021 -4.230086 -0.329900 -0.000001 0.000001 -0.000000 
-9.837718 96.402603 -3.468711 -0.390338 0.315185 -1.703531 2.403952 -0.355418 -1.332129 -2.298051 -0.196457 0.910790 0.222199 -0.832339 0.808867 0.896035 -0.289855 0.771991 -0.000002 0.000000 0.000001 -0.758083 2.269536 1.981455 1.284313 -0.736560 0.781407 -0.940986 -0.034156 0.726022 -0.000004 -0.000001 -0.000001 1.176788 0.833152 0.634328 1.670586 1.015535 0.792406 -1.119282 0.272618 -1.131818 -0.000004 0.000002 -0.000000 -0.630086 0.129043 6.045195 -1.145683 1.405454 -8.431347 2.152088 0.698646 0.223306 0.000003 -0.000000 -0.000004 -5.881594 1.003032 0.697753 4.458648 1.978194 4.551355 3.243788 -4.974279 -0.177469 -0.000001 -0.000002 0.000006 
